<?xml version="1.0" encoding="UTF-8"?><!DOCTYPE svg PUBLIC "-//W3C//DTD SVG 1.0//EN" "http://www.w3.org/TR/2001/REC-SVG-20010904/DTD/svg10.dtd" []><svg xmlns="http://www.w3.org/2000/svg" xmlns:xlink="http://www.w3.org/1999/xlink" height="480.0" preserveAspectRatio="xMidYMid meet" version="1.0" viewBox="16.0 16.0 480.0 480.0" width="480.0" zoomAndPan="magnify"><g id="change1_1"><circle cx="256" cy="256" r="240"/></g><g id="change2_1"><path d="M403.20049,172.55701c-.00236-.0033-.00471-.00656-.00707-.00986-2.79707-3.97722-7.4178-6.58347-12.63864-6.58347H121.44522c-5.22964,0-9.85736,2.61509-12.65294,6.60374-.00283,.00397-.00566,.0079-.00848,.01186-1.75185,2.50452-2.7838,5.548-2.7838,8.82962v149.18221c0,8.51668,6.92886,15.44522,15.44522,15.44522H390.55478c8.51637,0,15.44522-6.92854,15.44522-15.44522V181.4089c0-3.2914-1.03807-6.34312-2.79951-8.85189Zm-29.97115,8.85189l-117.22981,65.73772-117.27231-65.73772h234.50212ZM121.44522,330.5911V189.42799l130.77879,73.30871c1.17303,.65738,2.47459,.98607,3.77615,.98607,1.30187,0,2.60406-.329,3.77741-.98669l130.77737-73.33472,.00173,141.18975H121.44522Z" fill="#fff"/></g></svg>